<svg xmlns="http://www.w3.org/2000/svg" version="1.1" xmlns:xlink="http://www.w3.org/1999/xlink" xmlns:svgjs="http://svgjs.dev/svgjs" width="1440" height="560" preserveAspectRatio="none" viewBox="0 0 1440 560">
    <g mask="url(&quot;#SvgjsMask1058&quot;)" fill="none">
        <rect width="1440" height="560" x="0" y="0" fill="rgba(102, 160, 197, 0.95)"></rect>
        <path d="M0,429.299C77.902,416.297,126.381,342.739,192.84,300.065C259.333,257.37,351.347,246.951,390.7,178.427C430.648,108.868,428.094,17.14,398.034,-57.229C370.116,-126.298,292.47,-155.92,235.944,-204.446C188.829,-244.892,152.361,-298.682,93.553,-318.613C33.519,-338.959,-32.624,-335.945,-92.74,-315.843C-151.573,-296.17,-194.045,-249.792,-239.265,-207.324C-289.668,-159.989,-351.778,-119.594,-372.085,-53.498C-393.602,16.535,-374.247,91.006,-352.412,160.941C-328.11,238.775,-304.053,322.773,-239.181,372.173C-172.619,422.86,-82.522,443.073,0,429.299" fill="rgba(78, 145, 188, 0.95)"></path>
        <path d="M1440 1063.095C1532.575 1049.2559999999999 1613.468 1003.0219999999999 1691.189 950.857 1767.5140000000001 899.629 1827.671 834.706 1886.057 763.707 1963.853 669.106 2094.2 589.018 2089.3940000000002 466.631 2084.657 346.01099999999997 1939.5819999999999 286.746 1863.641 192.913 1784.299 94.87700000000001 1755.391-66.85500000000002 1633-97.29600000000005 1509.815-127.93399999999997 1406.786-0.22199999999998 1290.346 50.32600000000002 1191.097 93.411 1060.5810000000001 88.91699999999997 999.0450000000001 177.911 937.741 266.57 990.1279999999999 386.76599999999996 983.329 494.341 977.2080000000001 591.196 934.745 685.309 961.073 778.718 989.601 879.933 1044.998 980.251 1135.417 1033.94 1224.927 1087.089 1337.044 1078.4859999999999 1440 1063.095" fill="rgba(126, 175, 206, 0.95)"></path>
    </g>
    <defs>
        <mask id="SvgjsMask1058">
            <rect width="1440" height="560" fill="#ffffff"></rect>
        </mask>
    </defs>
</svg>